<svg version="1.1" id="Layer_1" xmlns="http://www.w3.org/2000/svg" xmlns:xlink="http://www.w3.org/1999/xlink" x="0px" y="0px"
	 width="100%" viewBox="0 0 3000 3000" enable-background="new 0 0 3000 3000" xml:space="preserve">
<path fill="#FFFFFF" opacity="1.000000" stroke="none" 
	d="
M1968.000000,3002.000000 
	C1312.000122,3002.000000 657.000244,3002.000000 2.000264,3002.000000 
	C2.000176,2002.000244 2.000176,1002.000610 2.000088,2.000666 
	C1001.999512,2.000444 2001.999023,2.000444 3001.999023,2.000222 
	C3001.999268,1001.999329 3001.999268,2001.998657 3001.999512,3001.999023 
	C2657.666748,3002.000000 2313.333252,3002.000000 1968.000000,3002.000000 
z"/>
<path fill="#000000" opacity="1.000000" stroke="none" 
	d="
M1167.932617,748.829102 
	C1173.647949,747.946106 1179.308350,747.682556 1184.968872,747.682312 
	C1658.896973,747.663330 2132.825195,747.664795 2606.753174,747.664795 
	C2607.752930,747.664795 2608.752930,747.657898 2609.752686,747.665894 
	C2619.203857,747.741272 2618.290771,746.624084 2618.333984,756.196533 
	C2618.339844,757.529663 2618.334717,758.862854 2618.334717,760.195984 
	C2618.334717,1254.787598 2618.334961,1749.379150 2618.334717,2243.970703 
	C2618.334717,2256.333984 2618.333496,2256.334717 2605.586426,2256.334717 
	C2037.672729,2256.334717 1469.758911,2256.335205 901.845215,2256.328125 
	C895.846680,2256.327881 889.848206,2256.227295 882.920166,2256.039551 
	C881.866943,2255.316162 881.743286,2254.726807 882.256714,2253.496582 
	C905.451965,2248.635010 928.209473,2245.658447 950.524231,2239.925537 
	C1019.963745,2222.085693 1081.466064,2189.544434 1135.057007,2141.974609 
	C1212.634521,2073.113525 1260.555664,1987.476196 1279.530029,1885.644043 
	C1284.478149,1859.088013 1286.963257,1832.165649 1286.992676,1805.144287 
	C1287.142212,1667.481812 1287.548218,1529.816650 1286.840820,1392.157471 
	C1286.523560,1330.448853 1258.380981,1283.963867 1202.997314,1255.942139 
	C1116.009277,1211.929810 1007.313110,1269.158081 993.122131,1365.677490 
	C991.615601,1375.924316 990.877441,1386.169556 990.883667,1396.538574 
	C990.965332,1533.201294 990.954346,1669.864014 990.931580,1806.526733 
	C990.919434,1879.332031 939.109619,1941.916748 867.514587,1955.703369 
	C782.768372,1972.022583 701.480164,1914.893555 687.925903,1829.520630 
	C686.872986,1822.888916 687.072266,1816.226196 687.072021,1809.566284 
	C687.060181,1491.242188 687.061096,1172.917969 687.063232,854.593872 
	C687.063416,833.471069 687.883179,834.951660 667.541199,834.946777 
	C580.210388,834.925842 492.879578,834.954346 405.548798,834.899414 
	C400.308319,834.896118 394.889923,835.761902 389.367676,832.313354 
	C388.627502,805.346008 388.557892,779.038086 388.261871,752.732788 
	C388.215637,748.625427 389.905823,747.450989 393.561127,747.645081 
	C395.886475,747.768494 398.223846,747.665100 400.555817,747.665100 
	C631.089355,747.664856 861.622864,747.663696 1092.156372,747.673218 
	C1096.819336,747.673401 1101.482422,747.798340 1107.077637,747.975647 
	C1107.338135,753.452820 1102.681885,752.253052 1099.538330,752.827271 
	C1063.126831,759.477722 1030.197144,773.804138 1001.113037,796.818420 
	C989.306091,806.161255 979.289917,817.342590 968.899231,828.128174 
	C966.521301,830.596558 962.936218,833.818726 966.597778,837.531006 
	C970.768921,841.760071 973.745972,837.836731 976.502014,834.971008 
	C986.428711,824.649109 995.737549,813.503479 1007.300659,805.083252 
	C1077.341919,754.079590 1151.915405,744.334656 1231.208374,781.840576 
	C1258.067261,794.544983 1281.406250,811.941223 1300.182495,835.170471 
	C1301.230347,836.466797 1302.364502,837.691406 1303.675781,838.730469 
	C1305.960083,840.540588 1308.490601,841.492371 1310.848877,839.189636 
	C1313.168701,836.924316 1312.502563,834.184631 1310.735718,831.935974 
	C1304.356323,823.816772 1297.844727,815.826416 1290.097412,808.899719 
	C1257.267822,779.547424 1219.451416,760.414856 1175.946533,752.809570 
	C1173.055542,752.304199 1169.860474,752.405151 1167.932617,748.829102 
z"/>
<path fill="#EA355F" opacity="1.000000" stroke="none" 
	d="
M388.588501,832.593506 
	C484.769989,831.666870 580.768433,831.662415 676.766907,831.713684 
	C691.520020,831.721558 689.667786,830.199341 689.669189,844.329407 
	C689.700684,1165.662231 689.886108,1486.995239 689.540466,1808.327759 
	C689.466125,1877.428711 743.911133,1945.309326 819.813293,1954.358398 
	C867.540283,1960.048462 908.919983,1945.917358 943.090088,1913.031982 
	C972.866577,1884.374878 988.201111,1848.341919 988.247803,1806.655640 
	C988.402954,1667.989380 988.552979,1529.322266 988.205139,1390.656616 
	C988.024780,1318.757080 1037.117798,1257.146973 1105.391235,1242.159058 
	C1155.113159,1231.243652 1199.865479,1242.408081 1238.310425,1275.927979 
	C1267.587158,1301.454102 1284.413574,1333.824097 1288.554321,1372.720947 
	C1289.190063,1378.693604 1289.681396,1384.608276 1289.682007,1390.580933 
	C1289.696899,1530.914062 1289.973511,1671.247925 1289.550537,1811.579712 
	C1289.389893,1864.877686 1279.248779,1916.559326 1260.303101,1966.482300 
	C1241.566284,2015.855591 1215.060669,2060.622314 1180.450073,2100.420898 
	C1115.275024,2175.364990 1034.255249,2224.180664 937.279724,2246.160156 
	C919.793274,2250.123535 902.195129,2253.635742 883.305969,2254.294922 
	C878.919006,2255.887451 875.196106,2256.104736 870.617188,2255.971680 
	C849.928101,2256.105469 830.042114,2256.246094 809.245483,2256.483643 
	C805.320007,2257.231934 802.271973,2256.918213 798.330688,2256.757324 
	C797.427551,2256.621338 796.648315,2256.489502 796.375244,2256.203857 
	C771.155090,2254.778564 746.546753,2251.352783 722.437744,2244.742920 
	C655.564392,2226.408691 595.547913,2195.246826 542.898560,2149.824951 
	C497.125854,2110.335693 460.419739,2063.767822 433.447479,2009.861450 
	C410.958862,1964.915649 395.391296,1917.555298 390.016571,1866.471802 
	C390.502228,1860.991577 388.654663,1856.449341 389.030792,1850.965698 
	C389.002533,1845.976929 389.096161,1841.772583 388.810425,1836.796875 
	C388.537628,1833.032593 388.326813,1830.040771 388.326691,1827.048950 
	C388.311951,1497.875854 388.312744,1168.702637 388.316803,839.529480 
	C388.316833,837.530945 388.374634,835.532471 388.588501,832.593506 
z"/>
<path fill="#010000" opacity="1.000000" stroke="none" 
	d="
M391.182007,1865.404419 
	C398.345642,1914.500610 412.236206,1961.112915 433.979095,2005.224243 
	C453.635620,2045.102661 478.795685,2081.231445 509.146698,2113.864014 
	C545.088318,2152.507568 586.540649,2183.756836 633.350342,2207.784180 
	C678.007751,2230.706543 725.241516,2245.953369 775.173218,2252.347656 
	C781.743835,2253.189453 788.319458,2253.992432 795.497437,2255.365723 
	C789.775452,2256.057861 783.448669,2256.318115 777.121948,2256.319336 
	C651.485596,2256.343262 525.849243,2256.351318 400.212891,2256.316650 
	C386.320038,2256.312744 388.366852,2257.777100 388.362457,2244.925293 
	C388.319214,2119.288818 388.345825,1993.652466 388.454712,1867.094971 
	C389.043243,1865.410522 389.738861,1865.039429 391.182007,1865.404419 
z"/>
<path fill="#E2335C" opacity="1.000000" stroke="none" 
	d="
M1167.683228,747.794739 
	C1176.642212,750.062988 1185.344604,751.852661 1193.943726,754.046936 
	C1235.926147,764.759888 1271.741333,786.087585 1301.761230,817.213806 
	C1306.134888,821.748657 1310.170532,826.633362 1314.103882,831.562561 
	C1318.536133,837.116577 1318.433105,837.248108 1312.971558,841.684509 
	C1311.171021,843.147156 1309.208984,844.410889 1307.342285,845.750000 
	C1303.477051,844.386963 1301.860352,840.871460 1299.564697,838.143555 
	C1271.103027,804.324097 1235.596191,781.302979 1193.010864,769.705811 
	C1142.991333,756.083984 1094.482910,760.696106 1047.539062,782.964355 
	C1019.658142,796.189819 996.741394,815.438171 976.746399,838.590088 
	C974.966064,840.651550 973.914062,845.111694 970.331848,843.708618 
	C966.764893,842.311401 963.757812,839.335876 960.732422,836.783203 
	C959.631104,835.853821 960.347656,834.391907 961.282227,833.283569 
	C962.994324,831.253174 964.573303,829.109802 966.299438,827.091980 
	C1003.469116,783.641968 1050.120483,757.283264 1107.442017,748.617676 
	C1108.010010,748.086182 1108.619751,747.502563 1109.035156,747.428711 
	C1111.157349,747.041138 1112.878540,747.013550 1115.451904,747.255432 
	C1130.157959,747.488037 1144.017456,747.557495 1158.788940,747.522827 
	C1161.393311,746.958984 1163.116821,747.029602 1165.695068,747.235107 
	C1166.548828,747.354675 1167.379028,747.502686 1167.683228,747.794739 
z"/>
<path fill="#403F3F" opacity="1.000000" stroke="none" 
	d="
M391.846436,1864.960449 
	C391.023224,1865.907471 390.326202,1866.067017 389.093018,1866.200195 
	C387.445831,1861.209473 388.213623,1856.181152 388.217041,1850.254761 
	C388.386261,1849.324829 389.339966,1849.192749 389.742249,1849.457275 
	C390.753845,1854.538818 391.363220,1859.356079 391.846436,1864.960449 
z"/>
<path fill="#B02847" opacity="1.000000" stroke="none" 
	d="
M390.145508,1848.929688 
	C390.144501,1849.721680 389.243652,1849.628418 388.814972,1849.476562 
	C388.328217,1845.448486 388.270111,1841.572266 388.431030,1836.860107 
	C391.315643,1839.794434 389.576477,1844.108765 390.145508,1848.929688 
z"/>
<path fill="#B02847" opacity="1.000000" stroke="none" 
	d="
M869.775574,2256.111084 
	C872.991943,2252.639160 877.063782,2254.460449 881.589722,2254.175293 
	C882.428833,2254.285156 882.282410,2255.115234 882.136475,2255.510498 
	C881.990601,2255.905762 881.247314,2256.492188 880.783508,2256.587158 
	C877.417114,2257.132324 874.498413,2256.952393 870.728149,2256.716064 
	C869.873230,2256.527344 869.737122,2256.257324 869.775574,2256.111084 
z"/>
<path fill="#BFBFBF" opacity="1.000000" stroke="none" 
	d="
M798.030762,2257.039307 
	C800.467102,2256.473877 803.506714,2256.326660 807.440552,2256.379883 
	C805.277832,2258.826660 801.948608,2258.061035 798.030762,2257.039307 
z"/>
<path fill="#BFBFBF" opacity="1.000000" stroke="none" 
	d="
M870.385132,2256.994141 
	C872.788513,2256.407471 875.703857,2256.287598 879.469421,2256.424805 
	C877.327271,2258.737305 874.113464,2258.114746 870.385132,2256.994141 
z"/>
<path fill="#BFBFBF" opacity="1.000000" stroke="none" 
	d="
M1115.830078,747.001099 
	C1114.580444,747.541321 1112.862305,747.664062 1110.297363,747.570801 
	C1111.249634,745.784302 1113.254395,745.792175 1115.830078,747.001099 
z"/>
<path fill="#BFBFBF" opacity="1.000000" stroke="none" 
	d="
M1166.045898,746.961487 
	C1164.829834,747.507507 1163.110962,747.660339 1160.546509,747.615845 
	C1161.434937,745.669067 1163.452515,745.868408 1166.045898,746.961487 
z"/>
<path fill="#E2335C" opacity="1.000000" stroke="none" 
	d="
M1008.382812,873.692139 
	C1001.120850,867.365479 1000.987183,867.247681 1007.023865,860.395813 
	C1048.663696,813.133118 1100.732544,793.449768 1163.233154,801.606323 
	C1200.147339,806.423706 1231.502441,822.862244 1258.451294,848.015503 
	C1264.736816,853.882080 1269.891724,860.954956 1275.621338,867.424438 
	C1278.500610,870.675476 1278.053589,873.193359 1274.258545,875.246216 
	C1273.388550,875.716797 1272.541748,876.320374 1271.857544,877.029724 
	C1268.230835,880.789612 1265.650391,880.446655 1262.426025,875.997681 
	C1251.555786,860.999207 1237.688599,849.132507 1222.070312,839.292725 
	C1200.912476,825.962952 1178.055664,817.776489 1152.969604,815.652405 
	C1099.004028,811.082947 1054.810425,830.075684 1019.014893,870.097961 
	C1016.544128,872.860413 1014.627075,878.673889 1008.382812,873.692139 
z"/>
<path fill="#E2335C" opacity="1.000000" stroke="none" 
	d="
M1149.095459,852.324341 
	C1167.924561,854.962341 1185.069336,859.803833 1200.637451,869.448792 
	C1216.151855,879.060547 1228.855835,891.530457 1238.979980,906.650574 
	C1240.982056,909.640625 1243.275146,912.490723 1238.035522,915.433289 
	C1229.649292,920.142944 1229.608521,920.650757 1225.952637,915.134460 
	C1210.132568,891.263062 1188.439209,875.563538 1160.392090,869.953552 
	C1120.653320,862.005188 1086.787354,873.270996 1059.569214,903.560669 
	C1056.466553,907.013428 1053.704224,910.808533 1051.093628,914.655029 
	C1049.129761,917.548523 1047.488403,917.415100 1044.564331,915.779297 
	C1034.996948,910.427063 1034.831055,910.368286 1041.589722,901.324341 
	C1065.951660,868.725159 1098.484009,852.353699 1139.194458,852.271729 
	C1142.192627,852.265686 1145.190918,852.280884 1149.095459,852.324341 
z"/>
</svg>